HIERARCHY
ROOT pelvis
{
  OFFSET 0 100 0
  CHANNELS 6 Xposition Yposition Zposition Zrotation Xrotation Yrotation
  JOINT pelvis_right_femur
  {
    OFFSET -10.78128 -3.44521 -0.5502486
    CHANNELS 3 Zrotation Xrotation Yrotation
    JOINT right_femur_tibia
    {
      OFFSET -0.8047443 -44.0398 -0.1307829
      CHANNELS 3 Zrotation Xrotation Yrotation
      JOINT right_tibia_foot
      {
        OFFSET 3.006224 -47.83518 -5
        CHANNELS 3 Zrotation Xrotation Yrotation
        End Site
        {
          OFFSET 0 -5 15
        }
      }
    }
  }
  JOINT pelvis_left_femur
  {
    OFFSET 10.78128 -3.44521 -0.5502486
    CHANNELS 3 Zrotation Xrotation Yrotation
    JOINT left_femur_tibia
    {
      OFFSET 0.8047443 -44.0398 -0.1307829
      CHANNELS 3 Zrotation Xrotation Yrotation
      JOINT left_tibia_foot
      {
        OFFSET -4.370144 -48.10324 -4.275266
        CHANNELS 3 Zrotation Xrotation Yrotation
        End Site
        {
          OFFSET 0 -5 15
        }
      }
    }
  }
  JOINT pelvis_spine1
  {
    OFFSET 0 6.468898 -3.129235
    CHANNELS 3 Zrotation Xrotation Yrotation
    JOINT spine1
    {
      OFFSET 0 23.15396 4.99043
      CHANNELS 3 Zrotation Xrotation Yrotation
      JOINT spine2
      {
        OFFSET 0 20.79997 -5.064912
        CHANNELS 3 Zrotation Xrotation Yrotation
        JOINT neck
        {
          OFFSET 0 14.38658 9.616178
          CHANNELS 3 Zrotation Xrotation Yrotation
          End Site
          {
            OFFSET 0 20 0
          }
        }
      }
      JOINT right_manubrium
      {
        OFFSET -5.722621 16.35077 3.967754
        CHANNELS 3 Zrotation Xrotation Yrotation
        JOINT right_clavicle
        {
          OFFSET -13.16364 1.694482 -4.693211
          CHANNELS 3 Zrotation Xrotation Yrotation
          JOINT right_humerus
          {
            OFFSET -28.5034 -0.3100689 -2.792744
            CHANNELS 3 Zrotation Xrotation Yrotation
            JOINT right_radius
            {
              OFFSET -25.15693 0.02248979 -1.271978
              CHANNELS 3 Zrotation Xrotation Yrotation
              End Site
              {
                OFFSET -15 0 0
              }
            }
          }
        }
      }
      JOINT left_manubrium
      {
        OFFSET 5.722621 16.35077 3.967754
        CHANNELS 3 Zrotation Xrotation Yrotation
        JOINT left_clavicle
        {
          OFFSET 13.16364 1.694482 -4.693211
          CHANNELS 3 Zrotation Xrotation Yrotation
          JOINT left_humerus
          {
            OFFSET 29.39168 -1.063119 -2.237045
            CHANNELS 3 Zrotation Xrotation Yrotation
            JOINT left_radius
            {
              OFFSET 24.59957 -0.9528479 0.9047498
              CHANNELS 3 Zrotation Xrotation Yrotation
              End Site
              {
                OFFSET 15 -0 -0
              }
            }
          }
        }
      }
    }
  }
}
MOTION
Frames: 15
Frame Time: 0.0416666666667
-534.5452 98.36698 2669.178 -3.769177 -7.253173 -30.08695 0.7061976 -11.3767 -2.988802 -0 35.20528 -0 -14.39524 -4.508759 -0.8527975 -5.431379 13.76927 -17.14844 -0 7.694925 -0 -1.819211 -19.90391 17.72259 1.819961 -3.445414 7.69606 0.2294822 16.69428 -5.593461 1.720295 18.63723 0.3836969 -1.407807 -19.77184 4.340753 -1.688605 -33.24591 12.80528 87.09322 14.51144 -5.819966 -0 0 32.72385 -25.59817 20.33001 19.0498 1.594144 -20.75884 -7.024889 -95.84114 12.44364 38.71082 0 0 -5.817433 4.820059 15.02551 7.842653
-536.0305 97.73457 2671.976 -2.933737 -5.909739 -29.75129 1.006285 -15.07086 -2.656169 -0 30.83086 -0 -13.11498 -5.613482 -0.875791 -5.572984 14.11778 -17.09156 -0 6.85349 -0 -0.3713394 -20.63785 18.00179 1.819621 -3.435127 7.704099 0.2270542 16.67678 -5.589572 1.718205 18.60983 0.3696883 -1.426151 -19.78418 4.335365 -1.692333 -33.2878 12.79151 87.0776 14.53236 -5.754833 -0 0 32.79808 -25.58645 20.34144 19.09125 1.574288 -20.73298 -7.011415 -95.83795 12.44045 38.77612 0 0 -5.836043 4.758986 14.98913 7.94427
-537.5616 96.88967 2674.875 -2.18579 -4.627062 -29.46883 1.352564 -18.62811 -2.456493 -0 26.64419 -0 -12.08198 -5.876928 -0.736643 -5.732323 14.39816 -16.80654 -0 6.426582 -0 1.29599 -21.18148 18.36178 1.819728 -3.423372 7.71001 0.2276166 16.65902 -5.587536 1.715385 18.58672 0.3554679 -1.44285 -19.79379 4.329025 -1.692665 -33.3262 12.78392 87.05591 14.5517 -5.693308 -0 0 32.87439 -25.57466 20.34974 19.11991 1.561477 -20.70642 -6.994927 -95.83675 12.43188 38.83259 0 0 -5.829505 4.720782 14.96703 8.00051
-539.1871 95.87041 2677.951 -1.531035 -3.430281 -29.2075 1.733745 -22.0125 -2.417278 -0 22.54115 -0 -11.29675 -5.487722 -0.4752951 -5.894458 14.69028 -16.3073 -0 6.465444 -0 3.049808 -21.53699 18.68864 1.820198 -3.411252 7.713763 0.2305546 16.64236 -5.587271 1.712204 18.56886 0.3421662 -1.456992 -19.80055 4.322447 -1.69055 -33.35873 12.78185 87.03157 14.56865 -5.63989 -0 0 32.94604 -25.56336 20.35446 19.13559 1.555208 -20.68135 -6.977255 -95.83682 12.41954 38.87734 0 0 -5.80391 4.703803 14.95806 8.015863
-540.9568 94.72266 2681.283 -0.9852686 -2.344714 -28.93756 2.155006 -25.12185 -2.528728 -0 18.56222 -0 -10.764 -4.584378 -0.1232181 -6.04431 15.03469 -15.60545 -0 7.114493 -0 4.768053 -21.65455 18.88501 1.820947 -3.399545 7.715477 0.2353061 16.62765 -5.588581 1.708933 18.55656 0.3304749 -1.46812 -19.80455 4.316112 -1.686708 -33.38419 12.78452 87.00686 14.58277 -5.596945 -0 0 33.00898 -25.55297 20.3556 19.1391 1.554754 -20.65911 -6.959694 -95.83771 12.40477 38.90929 0 0 -5.76431 4.705667 14.96064 7.995859
-542.9198 93.51581 2684.95 -0.5865289 -1.407027 -28.63511 2.648878 -27.77964 -2.73815 -0 14.90942 -0 -10.49611 -3.292843 0.2807116 -6.155813 15.43323 -14.71347 -0 8.622499 -0 6.301278 -21.43449 18.84874 1.821912 -3.388681 7.715344 0.2414486 16.61527 -5.591232 1.705725 18.54965 0.3206804 -1.476149 -19.80597 4.310265 -1.681564 -33.40239 12.79123 86.98294 14.59388 -5.565024 -0 0 33.06162 -25.54377 20.35351 19.13171 1.559398 -20.64027 -6.942958 -95.83923 12.38845 38.92869 0 0 -5.714118 4.723981 14.9732 7.945648
-545.1204 92.35614 2689.027 -0.3958229 -0.6700548 -28.28927 3.278351 -29.7368 -2.944695 -0 11.92281 -0 -10.50373 -1.761689 0.6758941 -6.187099 15.83791 -13.65228 -0 11.33839 -0 7.453837 -20.73853 18.47025 1.823054 -3.378801 7.713566 0.2487226 16.60525 -5.594999 1.702632 18.54771 0.3127678 -1.481233 -19.80502 4.304952 -1.675266 -33.4138 12.80146 86.96 14.60197 -5.54344 -0 0 33.10423 -25.53591 20.34868 19.1148 1.56856 -20.62482 -6.927275 -95.84143 12.37106 38.93654 0 0 -5.655087 4.756783 14.99449 7.869207
-547.5897 91.39265 2693.569 -0.48224 -0.1977439 -27.91487 4.120409 -30.7002 -3.006145 -0 9.991528 -0 -10.77217 -0.1807079 0.9674706 -6.083227 16.12997 -12.46112 -0 15.66764 -0 7.997905 -19.41806 17.65969 1.824354 -3.369852 7.71031 0.2570139 16.59737 -5.599702 1.699636 18.55021 0.3065415 -1.483643 -19.80189 4.300096 -1.667753 -33.4192 12.8149 86.9376 14.60716 -5.530855 -0 0 33.13814 -25.52944 20.34162 19.08955 1.58186 -20.61236 -6.912532 -95.8445 12.35273 38.93419 0 0 -5.587624 4.802739 15.02365 7.769085
-550.3328 90.80677 2698.591 -0.8868531 -0.04380989 -27.56756 5.216587 -30.40033 -2.772774 -0 9.380777 -0 -11.22726 1.233816 1.025096 -5.79031 16.09728 -11.20534 -0 21.95131 -0 7.73468 -17.36672 16.40802 1.825806 -3.361683 7.705698 0.2663094 16.59134 -5.605213 1.696685 18.5567 0.3017395 -1.483664 -19.79671 4.295557 -1.658851 -33.41938 12.83138 86.91501 14.60956 -5.525784 -0 0 33.16508 -25.52438 20.33279 19.05688 1.599098 -20.6024 -6.898446 -95.84867 12.33339 38.92288 0 0 -5.511279 4.861112 15.0602 7.646577
-553.3156 90.77657 2704.038 -1.570206 -0.2120437 -27.34823 6.501226 -28.69128 -2.145656 -0 10.01939 -0 -11.7108 2.290243 0.7155854 -5.282094 15.42525 -9.974186 -0 30.23771 -0 6.600527 -14.59463 14.85751 1.827409 -3.354142 7.699807 0.2766326 16.5869 -5.61144 1.693726 18.5668 0.2981303 -1.481525 -19.78954 4.291203 -1.648373 -33.41501 12.85087 86.8915 14.60928 -5.526981 -0 0 33.18657 -25.52072 20.32251 19.0174 1.620184 -20.59449 -6.884728 -95.85417 12.3129 38.90361 0 0 -5.425382 4.93155 15.10389 7.502252
-556.4602 91.4131 2709.766 -2.372121 -0.6215591 -27.37572 7.7577 -25.63912 -1.133928 -0 11.38208 -0 -12.00488 2.870709 -0.01046303 -4.590684 13.7279 -8.861316 -0 39.98176 -0 4.775453 -11.30558 13.3187 1.829149 -3.347164 7.692689 0.2879677 16.5839 -5.618311 1.690741 18.58032 0.2955914 -1.477357 -19.78044 4.286971 -1.636232 -33.40646 12.87326 86.86671 14.60641 -5.533716 -0 0 33.20338 -25.51846 20.31101 18.97158 1.645017 -20.58837 -6.871246 -95.86111 12.29123 38.87695 0 0 -5.329756 5.013718 15.15445 7.33677
-559.6585 92.68581 2715.553 -3.037267 -1.137806 -27.72392 8.659719 -21.52444 0.1068751 -0 12.62446 -0 -11.94006 2.912506 -1.011547 -3.818373 10.66134 -7.933361 -0 49.85418 -0 2.700735 -7.937117 12.17574 1.830988 -3.340833 7.684404 0.3001843 16.58236 -5.625737 1.687776 18.59712 0.2941595 -1.471186 -19.76945 4.282914 -1.622548 -33.39374 12.89831 86.84091 14.601 -5.54592 -0 0 33.21524 -25.51764 20.29836 18.91989 1.673338 -20.58412 -6.858148 -95.86941 12.26864 38.84315 0 0 -5.225423 5.106842 15.21132 7.151832
-562.8052 94.38541 2721.167 -3.344264 -1.69346 -28.36529 8.91538 -16.72639 1.275881 -0 12.99984 -0 -11.54132 2.331137 -1.947536 -3.097291 6.137682 -7.206167 -0 57.96399 -0 0.912279 -5.091685 11.71006 1.83286 -3.335418 7.675058 0.3129768 16.58251 -5.633581 1.684953 18.61714 0.2940423 -1.462962 -19.75671 4.27922 -1.607718 -33.37661 12.92549 86.8151 14.59312 -5.564144 -0 0 33.22072 -25.5183 20.2846 18.86309 1.704597 -20.58216 -6.845936 -95.87874 12.24574 38.80221 0 0 -5.115122 5.209246 15.27336 6.951082
-565.8337 96.17776 2726.442 -3.266735 -2.354081 -29.17435 8.464458 -11.59159 2.047077 -0 12.29856 -0 -11.0311 1.026007 -2.468286 -2.488777 0.5083673 -6.630363 -0 62.58167 -0 -0.2498643 -3.292302 11.97203 1.834665 -3.331359 7.664844 0.3258392 16.58472 -5.641624 1.682463 18.64021 0.2955783 -1.452617 -19.74246 4.276199 -1.592414 -33.3547 12.95393 86.791 14.58284 -5.589307 -0 0 33.21751 -25.52054 20.26982 18.80249 1.737852 -20.58319 -6.835455 -95.88858 12.22359 38.75421 0 0 -5.003472 5.318 15.3387 6.740741
-568.7259 97.72763 2731.334 -2.98546 -3.16455 -29.99222 7.573194 -6.424406 2.302477 -0 10.87667 -0 -10.59075 -0.9805745 -2.467563 -1.890961 -5.544202 -6.076302 -0 62.85876 -0 -0.7904985 -2.664004 12.7984 1.836284 -3.329205 7.654074 0.3380857 16.58941 -5.649545 1.680539 18.66592 0.2991462 -1.440161 -19.72712 4.274229 -1.577504 -33.3278 12.98238 86.77071 14.57025 -5.622224 -0 0 33.20307 -25.52451 20.25432 18.74011 1.771759 -20.58799 -6.827777 -95.89831 12.20357 38.69969 0 0 -4.896657 5.428774 15.40467 6.529777
